<?xml version="1.0" encoding="UTF-8"?>
<svg id="Layer_2" data-name="Layer 2" xmlns="http://www.w3.org/2000/svg" viewBox="0 0 333.31 309.25">
  <defs>
    <style>
      .cls-1 {
        fill: #fff;
        stroke-width: 0px;
      }
    </style>
  </defs>
  <g id="Layer_2-2" data-name="Layer 2">
    <path class="cls-1" d="m267.13,133.83c0,13.21-10.75,23.96-23.96,23.96s-23.96-10.75-23.96-23.96,10.75-23.96,23.96-23.96,23.96,10.75,23.96,23.96Zm52.85-52.56c8.84,16.63,13.32,34.32,13.32,52.56s-4.48,35.93-13.32,52.56c-8.48,15.95-20.58,30.26-35.98,42.51-15.3,12.18-33.1,21.73-52.89,28.4-20.43,6.88-42.11,10.36-64.46,10.36-17.04,0-33.81-2.05-49.91-6.1-26.25,21.82-55.06,37.77-85.68,47.42-.58.18-1.17.27-1.75.27-1.99,0-3.9-1.02-4.98-2.79-1.4-2.29-1.06-5.24.83-7.14,14.24-14.41,27-34.77,37.98-60.56-18.46-11.77-33.82-26.73-44.61-43.49-5.97-9.28-10.58-19.13-13.69-29.27-3.21-10.46-4.84-21.29-4.84-32.16,0-18.24,4.48-35.93,13.32-52.56,8.48-15.95,20.58-30.26,35.98-42.51,15.3-12.18,33.1-21.73,52.89-28.4C122.62,3.49,144.31,0,166.65,0s44.03,3.49,64.46,10.36c19.79,6.66,37.59,16.22,52.89,28.4,15.4,12.26,27.51,26.56,35.98,42.51Zm1.65,52.56c0-67.36-69.52-122.16-154.98-122.16S11.67,66.47,11.67,133.83c0,38.64,22.51,74.2,61.75,97.55,2.48,1.48,3.51,4.54,2.42,7.22-8.26,20.26-17.6,37.57-27.9,51.73,22.48-9.53,43.79-22.81,63.57-39.62,1.46-1.24,3.44-1.69,5.29-1.19,16.01,4.29,32.78,6.47,49.85,6.47,85.46,0,154.98-54.8,154.98-122.16Zm-231.5-23.96c-13.21,0-23.96,10.75-23.96,23.96s10.75,23.96,23.96,23.96,23.96-10.75,23.96-23.96-10.75-23.96-23.96-23.96Zm76.52,0c-13.21,0-23.96,10.75-23.96,23.96s10.75,23.96,23.96,23.96,23.96-10.75,23.96-23.96-10.75-23.96-23.96-23.96Z"/>
  </g>
</svg>