<?xml version="1.0" encoding="UTF-8"?>
<svg id="Layer_2" data-name="Layer 2" xmlns="http://www.w3.org/2000/svg" viewBox="0 0 450.68 383.21">
  <defs>
    <style>
      .cls-1 {
        fill: #fff;
        stroke-width: 0px;
      }
    </style>
  </defs>
  <g id="Layer_2-2" data-name="Layer 2">
    <path class="cls-1" d="m443.35,85.99c-1.31-1.59-2.77-3.04-4.35-4.35-1.59-1.31-3.3-2.47-5.12-3.46-.91-.49-1.84-.95-2.8-1.35-.96-.41-1.94-.77-2.95-1.08-1-.31-2.03-.58-3.07-.79-2.09-.43-4.25-.65-6.46-.65h-102.62c-.97-1.57-1.97-3.14-3.02-4.67-1.93-2.83-3.98-5.6-6.15-8.31-1.45-1.8-2.95-3.58-4.51-5.33-1.56-1.75-3.17-3.46-4.83-5.15-4.16-4.22-8.65-8.25-13.46-12.08-4.78-3.81-9.81-7.35-15.06-10.64-3.15-1.97-6.39-3.85-9.7-5.63-1.1-.59-2.22-1.18-3.34-1.75-4.49-2.29-9.11-4.4-13.87-6.33-3.57-1.45-7.21-2.8-10.92-4.05-5.11-1.72-10.29-3.23-15.55-4.52-2.63-.65-5.27-1.24-7.93-1.78-5.32-1.08-10.71-1.95-16.15-2.6-2.72-.33-5.46-.6-8.2-.81-4.12-.33-8.27-.53-12.44-.61-1.39-.03-2.79-.04-4.18-.04h0c-1.4,0-2.79.01-4.18.04-4.17.08-8.32.29-12.44.61-2.75.22-5.48.49-8.2.81-13.6,1.63-26.86,4.6-39.63,8.9-3.71,1.25-7.35,2.6-10.92,4.05-4.76,1.93-9.38,4.05-13.87,6.33-1.12.57-2.24,1.15-3.34,1.75-2.21,1.19-4.38,2.41-6.52,3.69-1.07.64-2.13,1.28-3.18,1.94-3.15,1.97-6.22,4.04-9.21,6.2-1.99,1.44-3.94,2.92-5.85,4.44-4.81,3.83-9.3,7.86-13.46,12.08-1.66,1.69-3.27,3.4-4.83,5.15-1.56,1.75-3.06,3.52-4.51,5.33-2.17,2.71-4.22,5.48-6.15,8.31-1.93,2.83-3.73,5.73-5.4,8.68-.56.98-1.1,1.97-1.63,2.97-2.76,5.2-5.1,10.5-7.01,15.89s-3.39,10.86-4.43,16.41c-.42,2.22-.77,4.45-1.05,6.69s-.49,4.49-.63,6.76c-.14,2.26-.21,4.53-.21,6.81,0,10.88,1.63,21.7,4.84,32.16.78,2.53,1.65,5.05,2.61,7.54,2.89,7.48,6.6,14.76,11.08,21.72.67,1.05,1.37,2.09,2.08,3.12.71,1.03,1.44,2.06,2.18,3.08,1.49,2.04,3.05,4.04,4.67,6.01,2.43,2.96,5.02,5.84,7.74,8.64,1.81,1.87,3.69,3.69,5.62,5.48,3.87,3.57,7.97,6.99,12.28,10.21,3.23,2.42,6.59,4.74,10.05,6.95-1.37,3.22-2.77,6.36-4.2,9.41-1.43,3.05-2.88,6.02-4.36,8.9-8.89,17.28-18.74,31.43-29.41,42.24-.24.24-.45.49-.63.76-.75,1.07-1.1,2.35-1.04,3.62.05.95.33,1.9.85,2.76.54.89,1.29,1.58,2.15,2.06.86.48,1.84.73,2.83.73.29,0,.59-.02.88-.07.29-.04.59-.11.88-.2,3.83-1.21,7.63-2.51,11.4-3.91,5.65-2.1,11.24-4.43,16.76-6.96,7.35-3.39,14.58-7.16,21.67-11.31,3.54-2.07,7.05-4.24,10.52-6.51,1.74-1.13,3.46-2.29,5.18-3.47,5.95-4.08,11.79-8.47,17.51-13.11v23.18c0,7.19,2.38,13.83,6.38,19.19.62.82,1.27,1.62,1.96,2.38.69.76,1.42,1.49,2.18,2.18.76.69,1.55,1.35,2.38,1.96.41.31.83.61,1.26.9,5.12,3.46,11.29,5.49,17.93,5.49h164.51c22.47,27,48.68,48.38,77.92,63.57.43.22.87.39,1.32.49.45.11.91.16,1.37.16.41,0,.82-.04,1.21-.13.2-.04.4-.09.59-.16.29-.1.58-.22.85-.36.15-.08.3-.16.45-.26.19-.12.38-.26.56-.4.25-.2.5-.42.72-.67.89-1.01,1.37-2.25,1.45-3.52.04-.63-.03-1.27-.2-1.89-.17-.62-.45-1.22-.83-1.77-.62-.89-1.23-1.81-1.84-2.73-.61-.93-1.2-1.87-1.79-2.83-3.54-5.76-6.83-12.1-9.85-18.99-1.01-2.3-1.98-4.66-2.93-7.08-1.42-3.63-2.77-7.4-4.06-11.31-.64-1.95-1.27-3.94-1.87-5.96-.61-2.02-1.2-4.07-1.77-6.16h46.6c6.28,0,12.14-1.82,17.09-4.95.91-.57,1.78-1.19,2.63-1.85.44-.35.88-.71,1.3-1.07.55-.48,1.09-.97,1.6-1.48.02-.02.03-.03.05-.05.56-.56,1.09-1.14,1.6-1.74.3-.35.6-.71.89-1.07.5-.63.98-1.27,1.43-1.94,3.46-5.12,5.49-11.29,5.49-17.93V106.39c0-6.64-2.02-12.81-5.49-17.93-.58-.85-1.19-1.68-1.85-2.47Zm-176.21,47.85c0,13.21-10.75,23.96-23.96,23.96s-23.96-10.75-23.96-23.96,10.75-23.96,23.96-23.96,23.96,10.75,23.96,23.96Zm-76.52,0c0,13.21-10.75,23.96-23.96,23.96s-23.96-10.75-23.96-23.96,10.75-23.96,23.96-23.96,23.96,10.75,23.96,23.96Zm-100.48,23.96c-13.21,0-23.96-10.75-23.96-23.96s10.75-23.96,23.96-23.96,23.96,10.75,23.96,23.96-10.75,23.96-23.96,23.96Zm348.88,129.1c0,11.26-9.16,20.42-20.42,20.42h-54.15c-1.79,0-3.49.82-4.59,2.24-1.11,1.41-1.5,3.25-1.07,5,4.35,17.62,9.85,33.25,16.44,46.72-21.1-13.67-40.3-31.03-57.25-51.81-1.11-1.36-2.77-2.15-4.52-2.15h-167.26c-11.26,0-20.42-9.16-20.42-20.42v-23.31c3.1.63,6.21,1.21,9.35,1.69,10.34,1.59,20.89,2.39,31.54,2.39,11.17,0,22.18-.87,32.95-2.6,2.69-.43,5.37-.92,8.03-1.46,3.99-.81,7.95-1.74,11.86-2.79,3.91-1.05,7.79-2.22,11.62-3.51,3.71-1.25,7.35-2.6,10.92-4.05,3.57-1.45,7.06-3,10.48-4.65,3.42-1.65,6.76-3.4,10.02-5.24,7.61-4.3,14.78-9.13,21.47-14.45,4.81-3.83,9.3-7.86,13.46-12.08,1.66-1.69,3.27-3.4,4.83-5.15,1.56-1.75,3.06-3.52,4.51-5.33.72-.9,1.43-1.81,2.13-2.73,1.39-1.83,2.73-3.69,4.02-5.58,1.28-1.89,2.51-3.8,3.68-5.74,1.17-1.94,2.29-3.91,3.35-5.9.55-1.04,1.09-2.08,1.61-3.13,1.04-2.1,2.01-4.21,2.91-6.33,1.01-2.39,1.94-4.8,2.78-7.23,2.52-7.29,4.25-14.73,5.19-22.3.28-2.24.49-4.49.63-6.76.14-2.26.21-4.53.21-6.81s-.07-4.55-.21-6.81c-.14-2.26-.35-4.51-.63-6.76-.28-2.24-.63-4.47-1.05-6.69-1.04-5.55-2.52-11.02-4.43-16.41-.33-.94-.68-1.89-1.04-2.82-1.09-2.81-2.29-5.6-3.61-8.37h96.25c11.26,0,20.42,9.16,20.42,20.42v180.51Z"/>
  </g>
</svg>