<?xml version="1.0" encoding="UTF-8"?>
<svg id="Layer_2" data-name="Layer 2" xmlns="http://www.w3.org/2000/svg" viewBox="0 0 499.42 406.56">
  <defs>
    <style>
      .cls-1 {
        fill: #fff;
        stroke-width: 0px;
      }
    </style>
  </defs>
  <g id="Layer_2-2" data-name="Layer 2">
    <path class="cls-1" d="m467.33,97.64h-140.17c-1.94-5.55-4.33-11.02-7.17-16.37-8.48-15.95-20.58-30.26-35.98-42.51-3.83-3.04-7.81-5.93-11.94-8.64-3.1-2.03-6.28-3.97-9.54-5.82-3.26-1.84-6.6-3.59-10.02-5.24-1.14-.55-2.29-1.09-3.44-1.62-5.78-2.64-11.77-5-17.96-7.09C210.68,3.49,189,0,166.65,0s-44.03,3.49-64.46,10.36c-6.19,2.08-12.18,4.45-17.96,7.09-1.16.53-2.3,1.07-3.44,1.62-3.42,1.65-6.76,3.4-10.02,5.24-3.26,1.84-6.44,3.78-9.54,5.82-1.03.68-2.06,1.37-3.07,2.07-2.03,1.4-4.02,2.84-5.97,4.32-.98.74-1.94,1.49-2.9,2.25-9.41,7.49-17.59,15.75-24.47,24.69-.34.44-.67.88-1,1.32-2.32,3.09-4.48,6.27-6.49,9.51-1.42,2.3-2.77,4.63-4.03,7-.71,1.33-1.38,2.67-2.03,4.01-.65,1.34-1.27,2.69-1.86,4.05-2.64,6.02-4.73,12.16-6.27,18.4-.98,3.98-1.73,8-2.26,12.06-.04.28-.07.56-.11.84-.53,4.36-.8,8.77-.8,13.2,0,3.06.13,6.11.39,9.16.09,1.01.19,2.03.3,3.04.09.84.2,1.69.31,2.53.8,5.89,2.08,11.72,3.84,17.44,3.11,10.14,7.71,19.99,13.69,29.27,5.31,8.25,11.73,16.07,19.08,23.28,1.05,1.03,2.12,2.05,3.21,3.05,1.93,1.79,3.92,3.53,5.97,5.24,2.05,1.7,4.15,3.36,6.31,4.98,1.62,1.21,3.26,2.4,4.94,3.55,1.67,1.16,3.38,2.29,5.11,3.39-6.18,14.51-12.92,27.29-20.16,38.27-1.28,1.93-2.57,3.79-3.88,5.61-.97,1.35-1.94,2.67-2.93,3.95-1.04,1.36-2.1,2.7-3.16,4-1.71,2.08-3.44,4.06-5.2,5.96-.88.95-1.76,1.87-2.65,2.77-.47.48-.85,1.02-1.12,1.6-.28.58-.45,1.2-.52,1.83-.04.32-.05.63-.03.95.03.64.16,1.27.41,1.88.12.3.27.6.44.89.54.89,1.29,1.58,2.15,2.06.22.12.44.22.67.32.68.27,1.42.42,2.17.42.29,0,.59-.02.88-.07s.59-.11.88-.2c17.22-5.43,33.88-12.85,49.82-22.18,3.54-2.07,7.05-4.24,10.52-6.51,3.47-2.26,6.91-4.62,10.31-7.07,1.27-.92,2.54-1.85,3.81-2.8,3.79-2.84,7.53-5.79,11.22-8.86,2.01.51,4.04.98,6.07,1.42,4.07.89,8.17,1.65,12.31,2.28,2.07.32,4.14.6,6.23.86,7.09.87,14.26,1.34,21.49,1.47v42.64c0,17.7,14.4,32.09,32.09,32.09h164.51c22.47,27,48.68,48.38,77.92,63.57.85.44,1.77.66,2.69.66,1.64,0,3.24-.69,4.38-1.98,1.77-2.01,1.95-4.97.42-7.18-9.91-14.31-18.01-32.81-24.12-55.07h46.6c17.7,0,32.09-14.4,32.09-32.09v-180.51c0-17.7-14.4-32.09-32.09-32.09ZM116.8,249.53c-1.85-.5-3.83-.05-5.29,1.19-19.79,16.81-41.09,30.08-63.57,39.62,10.3-14.16,19.64-31.47,27.9-51.73,1.09-2.67.06-5.74-2.42-7.22-39.24-23.36-61.75-58.91-61.75-97.55C11.67,66.47,81.2,11.67,166.65,11.67c69.48,0,128.42,36.23,148.04,85.97,4.51,11.44,6.94,23.59,6.94,36.19,0,67.36-69.52,122.16-154.98,122.16-1.28,0-2.55-.04-3.82-.06-15.75-.3-31.21-2.44-46.03-6.41Zm-2.71-115.69c0,13.21-10.75,23.96-23.96,23.96s-23.96-10.75-23.96-23.96,10.75-23.96,23.96-23.96,23.96,10.75,23.96,23.96Zm105.11,0c0-13.21,10.75-23.96,23.96-23.96s23.96,10.75,23.96,23.96-10.75,23.96-23.96,23.96-23.96-10.75-23.96-23.96Zm-52.56,23.96c-1.3,0-2.58-.11-3.82-.31-11.4-1.84-20.14-11.74-20.14-23.65,0-13.21,10.75-23.96,23.96-23.96,1,0,1.98.07,2.95.19,11.83,1.46,21.02,11.56,21.02,23.77,0,13.21-10.75,23.96-23.96,23.96Z"/>
  </g>
</svg>