<?xml version="1.0" encoding="UTF-8"?>
<svg id="Layer_2" data-name="Layer 2" xmlns="http://www.w3.org/2000/svg" viewBox="0 0 333.31 309.25">
  <defs>
    <style>
      .cls-1 {
        fill: #fff;
        stroke-width: 0px;
      }
    </style>
  </defs>
  <g id="Layer_2-2" data-name="Layer 2">
    <path class="cls-1" d="m284,38.76c-15.3-12.18-33.1-21.73-52.89-28.4C210.68,3.49,189,0,166.65,0s-44.03,3.49-64.46,10.36c-19.79,6.66-37.59,16.22-52.89,28.4-15.4,12.26-27.51,26.56-35.98,42.51C4.48,97.9,0,115.59,0,133.83c0,10.88,1.63,21.7,4.84,32.16,3.11,10.14,7.71,19.99,13.69,29.27,10.79,16.77,26.15,31.73,44.61,43.49-10.98,25.79-23.74,46.15-37.98,60.56-1.88,1.91-2.23,4.85-.83,7.14,1.08,1.77,2.99,2.79,4.98,2.79.58,0,1.17-.09,1.75-.27,30.62-9.65,59.43-25.59,85.68-47.42,16.1,4.05,32.87,6.1,49.91,6.1,22.34,0,44.03-3.49,64.46-10.36,19.79-6.66,37.59-16.22,52.89-28.4,15.4-12.26,27.51-26.56,35.98-42.51,8.84-16.63,13.32-34.32,13.32-52.56s-4.48-35.93-13.32-52.56c-8.48-15.95-20.58-30.26-35.98-42.51Zm-193.87,119.03c-13.21,0-23.96-10.75-23.96-23.96s10.75-23.96,23.96-23.96,23.96,10.75,23.96,23.96-10.75,23.96-23.96,23.96Zm76.52,0c-13.21,0-23.96-10.75-23.96-23.96s10.75-23.96,23.96-23.96,23.96,10.75,23.96,23.96-10.75,23.96-23.96,23.96Zm76.52,0c-13.21,0-23.96-10.75-23.96-23.96s10.75-23.96,23.96-23.96,23.96,10.75,23.96,23.96-10.75,23.96-23.96,23.96Z"/>
  </g>
</svg>