<?xml version="1.0" encoding="UTF-8"?>
<svg id="Layer_2" data-name="Layer 2" xmlns="http://www.w3.org/2000/svg" viewBox="0 0 433.79 367.43">
  <defs>
    <style>
      .cls-1 {
        fill: #fff;
        stroke-width: 0px;
      }
    </style>
  </defs>
  <g id="Layer_2-2" data-name="Layer 2">
    <path class="cls-1" d="m431.9,171.75c-.21-1.11-.44-2.22-.68-3.32-.49-2.21-1.04-4.4-1.67-6.59-1.56-5.46-3.56-10.83-5.98-16.11-.97-2.11-2.01-4.21-3.11-6.29-3.18-5.98-6.87-11.73-11.05-17.23-1.39-1.83-2.84-3.64-4.35-5.41-3.01-3.55-6.23-6.99-9.66-10.3-3.43-3.31-7.08-6.51-10.93-9.57-3.83-3.04-7.81-5.93-11.94-8.64-4.13-2.71-8.41-5.26-12.82-7.63-2.21-1.19-4.45-2.33-6.73-3.43-3.42-1.65-6.91-3.2-10.48-4.65-3.57-1.45-7.21-2.8-10.92-4.05-6.38-2.15-12.89-3.97-19.5-5.45-1.55-.35-3.11-.67-4.67-.98h0c-.21-.26-.41-.53-.62-.79-1.45-1.8-2.95-3.58-4.51-5.33-1.56-1.75-3.17-3.46-4.83-5.15-4.16-4.22-8.65-8.25-13.46-12.08-15.3-12.18-33.1-21.73-52.89-28.4-8.94-3.01-18.12-5.37-27.48-7.07-4.02-.73-8.07-1.34-12.15-1.83-2.72-.33-5.46-.6-8.2-.81-4.12-.33-8.27-.53-12.44-.61-1.39-.03-2.79-.04-4.18-.04h0c-4.89,0-9.74.17-14.56.5-4.82.33-9.6.83-14.34,1.49-2.71.38-5.4.81-8.08,1.3-2.68.49-5.34,1.03-7.98,1.62-6.61,1.48-13.12,3.3-19.5,5.45-3.71,1.25-7.35,2.6-10.92,4.05-4.76,1.93-9.38,4.05-13.87,6.33-1.12.57-2.24,1.15-3.34,1.75-2.21,1.19-4.38,2.41-6.52,3.69-1.75,1.04-3.48,2.12-5.18,3.22-2.45,1.58-4.86,3.22-7.2,4.91-1.99,1.44-3.94,2.92-5.85,4.44-3.86,3.07-7.51,6.27-10.95,9.6-3.02,2.92-5.87,5.94-8.57,9.05-.7.81-1.39,1.62-2.07,2.44-5.58,6.75-10.4,13.9-14.4,21.43C4.48,97.9,0,115.59,0,133.83c0,4.08.23,8.15.68,12.2.76,6.75,2.15,13.42,4.15,19.97,3.11,10.14,7.71,19.99,13.69,29.27,6.37,9.89,14.33,19.15,23.57,27.5,4.2,3.79,8.67,7.4,13.38,10.79,2.49,1.79,5.04,3.54,7.66,5.21-7.55,17.73-15.94,32.89-25.07,45.32-4.15,5.65-8.46,10.73-12.91,15.24-.47.48-.85,1.02-1.12,1.6-.83,1.74-.76,3.83.29,5.54.41.66.93,1.22,1.53,1.66,1,.73,2.21,1.13,3.45,1.13.27,0,.54-.02.82-.06.31-.04.63-.11.94-.21,30.62-9.65,59.43-25.59,85.68-47.42h0c2.42.61,4.86,1.16,7.3,1.67.76.16,1.53.31,2.29.46.22.27.42.55.64.82,1.45,1.8,2.95,3.58,4.51,5.33,1.56,1.75,3.17,3.46,4.83,5.15.83.84,1.68,1.68,2.54,2.51,3.43,3.31,7.08,6.51,10.93,9.57,1.91,1.52,3.86,3,5.85,4.44,2.98,2.16,6.05,4.23,9.21,6.2,4.2,2.63,8.55,5.09,13.04,7.37,2.24,1.14,4.52,2.24,6.83,3.3,5.78,2.64,11.77,5,17.96,7.09,20.43,6.88,42.11,10.36,64.46,10.36,6.39,0,12.74-.29,19.04-.86,10.49-.96,20.81-2.71,30.88-5.24,26.25,21.82,55.06,37.77,85.68,47.42.29.09.58.16.88.2.29.04.59.07.88.07,1.74,0,3.42-.78,4.54-2.17.16-.2.31-.41.44-.63.17-.29.32-.58.44-.89.12-.3.21-.61.28-.93.07-.31.11-.63.12-.95.08-1.59-.5-3.19-1.68-4.38-7.12-7.21-13.87-15.9-20.21-26.01-1.59-2.53-3.15-5.15-4.68-7.85-4.6-8.12-8.97-17.02-13.09-26.69,4.62-2.94,9.04-6.08,13.24-9.4,2.1-1.66,4.15-3.36,6.14-5.11,1.99-1.75,3.92-3.53,5.8-5.36,2.81-2.74,5.49-5.57,8.02-8.47,1.69-1.94,3.31-3.91,4.87-5.92,1.56-2.01,3.05-4.04,4.47-6.11.71-1.03,1.4-2.07,2.08-3.12,1.68-2.61,3.25-5.27,4.71-7.96.49-.9.96-1.8,1.42-2.71,3.08-6.04,5.61-12.26,7.55-18.6,1.2-3.92,2.18-7.9,2.94-11.91.76-4.01,1.29-8.05,1.59-12.11.2-2.71.3-5.42.3-8.14,0-4.56-.28-9.09-.84-13.57-.28-2.24-.63-4.47-1.05-6.69Zm-164.77-37.91c0,13.21-10.75,23.96-23.96,23.96s-23.96-10.75-23.96-23.96,10.75-23.96,23.96-23.96,23.96,10.75,23.96,23.96Zm-76.52,0c0,13.21-10.75,23.96-23.96,23.96s-23.96-10.75-23.96-23.96,10.75-23.96,23.96-23.96,23.96,10.75,23.96,23.96Zm-124.44,0c0-13.21,10.75-23.96,23.96-23.96s23.96,10.75,23.96,23.96c0,2.5-.39,4.92-1.1,7.19,0,0,0,0,0,0-.68,2.15-1.66,4.18-2.88,6.02,0,0,0,0,0,0-4.29,6.47-11.64,10.75-19.98,10.75-13.21,0-23.96-10.75-23.96-23.96Zm294.19,155.73c-2.48,1.48-3.51,4.54-2.42,7.22,8.26,20.26,17.6,37.57,27.9,51.73-22.48-9.53-43.79-22.81-63.57-39.62-1.46-1.24-3.44-1.69-5.29-1.19-16.01,4.29-32.78,6.47-49.85,6.47-49.94,0-94.42-18.72-122.79-47.71,7.36.79,14.81,1.21,22.31,1.21,11.17,0,22.18-.87,32.95-2.6,1.35-.22,2.69-.45,4.03-.69,9.37-1.7,18.55-4.06,27.48-7.07,19.79-6.66,37.59-16.22,52.89-28.4,4.81-3.83,9.3-7.86,13.46-12.08,1.66-1.69,3.27-3.4,4.83-5.15,1.56-1.75,3.06-3.52,4.51-5.33.72-.9,1.43-1.81,2.13-2.73,2.79-3.67,5.36-7.44,7.7-11.33,1.17-1.94,2.29-3.91,3.35-5.9.55-1.04,1.09-2.08,1.61-3.13.68-1.37,1.31-2.75,1.93-4.13,3.06-6.83,5.41-13.82,7.03-20.94.59-2.6,1.1-5.22,1.5-7.85.3-1.99.55-3.98.74-5.98.12-1.24.22-2.47.3-3.72.14-2.26.21-4.53.21-6.81s-.07-4.55-.21-6.81c-.08-1.24-.18-2.48-.3-3.72-.19-2-.44-4-.74-5.98-.19-1.25-.4-2.5-.63-3.75-.26-1.37-.55-2.74-.86-4.1-1.59-6.97-3.88-13.81-6.84-20.51-1.15-2.58-2.38-5.15-3.73-7.69-.53-1-1.07-1.99-1.63-2.97-.36-.64-.74-1.27-1.11-1.9,60.94,16.46,104.87,62.06,104.87,115.61,0,38.64-22.51,74.2-61.75,97.55Z"/>
  </g>
</svg>